# xmcd
#
# Track frame offsets: 
#        150
#        15219
#        26088
#        46992
#        68766
#        88268
#        107027
#        124211
#        136085
#        147652
#        161724
#        182606
#
# Disc length: 2636 seconds
#
# Revision: 4
# Processed by: cddbd v1.5.2PL0 Copyright (c) Steve Scherf et al.
# Submitted via: ExactAudioCopyFreeDBPlugin 1.0
#
DISCID=a20a4a0c
DTITLE=Jason Ringenberg - All Over Creation
DYEAR=2002
DGENRE=Country
TTITLE0=Honky Tonk Maniac From Mars (With Hamell On Trial)
TTITLE1=I Dreamed My Baby Came Home (With Kristi Rose and Fats Kaplin)
TTITLE2=Bible And A Gun (With Steve Earle)
TTITLE3=Too High To See (With Tommy Womack)
TTITLE4=James Dean's Car (With Todd Snider)
TTITLE5=Camille (With Swan Dive)
TTITLE6=One Less Heartache (With The Wildhearts)
TTITLE7=Mother Of Earth (With Kristi Rose and Fats Kaplin)
TTITLE8=Don't Come Home Drinkin' (With Lovin' On Your Mind) (With BR54
TTITLE8=9)
TTITLE9=Sun Don't Shine (With Paul Burch)
TTITLE10=Erin's Seed (With Lambchop)
TTITLE11=Last Train To Memphis (With George Bradfute)
EXTD=
EXTT0=
EXTT1=
EXTT2=
EXTT3=
EXTT4=
EXTT5=
EXTT6=
EXTT7=
EXTT8=
EXTT9=
EXTT10=
EXTT11=
PLAYORDER=
